<?xml version="1.0" encoding="utf-8"?>
<!-- Generator: Adobe Illustrator 27.0.0, SVG Export Plug-In . SVG Version: 6.00 Build 0)  -->
<svg version="1.1" id="Layer_1" xmlns="http://www.w3.org/2000/svg" xmlns:xlink="http://www.w3.org/1999/xlink" x="0px" y="0px"
	 viewBox="0 0 203.3 69.6" style="enable-background:new 0 0 203.3 69.6;" xml:space="preserve">
<style type="text/css">
	.st0{fill:none;stroke:#243746;stroke-miterlimit:10;}
	.st1{fill-rule:evenodd;clip-rule:evenodd;fill:#FFFFFF;}
</style>
<path class="st0" d="M167.3,382.1"/>
<path class="st1" d="M98.5,28.8c-0.6-0.6-1.7-0.8-3.5-0.9c-0.6,0-14.8,0-15.4,0c-3.5,0-3.9,0.5-4.7,1.1c-0.8,0.6-1.5,1.8-1.5,3.6
	v10.4c0,2.1,0.8,3.5,2.1,3.9c0.6,0.3,1.8,0.5,5.9,0.5H99v-3.9H80.7c-0.6,0-1.1-0.5-1.1-1.2v-2.7h20.2v-7.1
	C99.9,30.4,99.4,29.5,98.5,28.8z M93.9,35.7H79.7V33c0-0.6,0.5-1.2,1.2-1.2h11.9c0.6,0,1.2,0.6,1.2,1.2v2.7H93.9z M20,47.5h6.2V27.9
	H20V47.5z M102.4,47.5h6V20h-6V47.5z M111.2,47.5h6V20h-6V47.5z M64,20h-6v22.9c0,2.1,0.8,3.5,2,4.1c0.9,0.5,1.8,0.5,5.9,0.5h5.3
	v-3.9c0,0-5.4,0.2-6.2-0.2C64.2,43.2,64,42.6,64,42V31.6h7.2v-3.8H64C64,27.9,64,20,64,20z M20,23.9h6V20h-6V23.9z M47.4,27.9H28.7
	v19.6h6V31.8H48c0.6,0,1.2,0.5,1.2,1.2v14.5h6V35.4c0-2.1,0.2-5-0.8-6C53.6,28.3,53,27.9,47.4,27.9z M151.6,28.3
	c-0.6-0.3-1.2-0.5-5.3-0.5h-16.9v3.9h17.5c0.6,0,1.2,0.6,1.2,1.2v2.6h-16.7c-2,0-2.9,1.1-2.9,3.8c0,0,0,2.3,0,3.9c0,0.9,0,2,0.3,2.6
	c0.5,0.9,1.2,1.2,2.6,1.4h22.8V32.4C154.2,30.6,153.1,28.9,151.6,28.3z M146.9,43.5h-11.3c-0.6,0-1.1-0.5-1.1-1.1v-1.8
	c0-0.6,0.6-1.1,1.1-1.1h12.5v2.7C148.1,43.1,147.5,43.5,146.9,43.5z M181.9,36.6c-0.9-0.9-2.4-0.8-2.4-0.9H164
	c-0.5,0-0.9-0.5-1.1-0.9v-0.5v-1.5c0-0.2,0-0.3,0.2-0.5c0.2-0.3,0.5-0.6,0.9-0.6h18.2v-3.9h-17.5c-4.1,0-5.1,0.2-5.9,0.5
	c-1.4,0.8-2.1,2-2.1,4.1V34c0,1.4,0,2.9,1.2,4.1c1.1,1.2,2.3,1.2,3.9,1.4H176c0.6,0,1.1,0.5,1.1,1.1v1.8c0,0.6-0.5,0.9-1.1,1.1
	h-18.4v3.9h17.8c4.4,0,5.1,0,5.7-0.3c1.7-0.9,2-1.8,2-3.8V41C183.1,39.6,183.3,38,181.9,36.6z M119.8,23.9h6V20h-6V23.9z
	 M119.8,47.5h6V27.9h-6V47.5z"/>
</svg>
