<svg width="82" height="64" viewBox="0 0 82 64" fill="none" xmlns="http://www.w3.org/2000/svg">
<g id="Group 34">
<path id="Vector" d="M56.5728 36.8678C60.9792 35.5486 65.3283 34.2462 69.674 32.9438C71.0709 32.5255 72.4609 32.0835 73.8645 31.6988C76.3444 31.0207 78.7838 31.9215 80.1402 33.9796C81.4391 35.9467 81.3683 38.4164 79.9512 40.2755C79.715 40.5859 79.4417 40.8795 79.1414 41.1291C71.9785 47.0944 64.6468 52.8369 56.6335 57.6448C53.4316 59.5646 50.1757 61.444 46.5183 62.3246C40.1246 63.8665 34.0345 62.8779 28.319 59.6692C25.9032 58.3129 23.3828 57.5807 20.5453 57.8743C20.5183 58.0531 20.4846 58.2083 20.4745 58.3669C20.3058 60.4959 18.9832 62.0614 16.9081 62.5101C14.6341 63.0027 12.3566 63.4717 10.0691 63.9103C7.63979 64.3793 5.4973 62.969 4.9777 60.5363C3.55725 53.9031 2.16717 47.2664 0.766961 40.6298C0.524033 39.4793 0.257488 38.3287 0.0651703 37.1681C-0.322839 34.8434 1.05375 32.7583 3.34132 32.2252C5.60864 31.6988 7.88271 31.2096 10.1602 30.7305C12.2588 30.2919 14.1212 31.1522 15.0862 33.0585C15.346 33.5748 15.6193 33.5579 16.0748 33.4634C19.0371 32.846 21.9961 32.1914 24.9787 31.6752C28.0997 31.1387 31.1633 31.6077 33.8085 33.315C37.449 35.6633 41.2245 36.0918 45.3172 34.9851C46.9637 34.5397 48.654 34.2394 50.3377 33.9358C53.0537 33.4432 55.1051 34.4621 56.5694 36.8712L56.5728 36.8678ZM19.9447 55.1919C23.2816 54.8613 26.3148 55.4517 29.1389 57.0443C36.4908 61.1909 43.9035 61.5047 51.4241 57.4694C60.824 52.4253 69.1477 45.8696 77.3296 39.1115C78.3924 38.2343 78.5915 36.8307 77.9741 35.67C77.3499 34.4891 76.0374 33.8784 74.681 34.2766C68.9824 35.9568 63.2972 37.6708 57.6154 39.4017C57.3792 39.4725 57.1025 39.8167 57.062 40.0663C56.6133 42.968 54.7947 45.0362 51.9268 45.7448C50.0509 46.2104 48.1547 46.5984 46.2686 47.0168C44.7638 47.3508 43.2624 47.6983 41.7542 48.0087C40.7893 48.2078 40.1077 47.7962 39.9424 46.9796C39.7872 46.2171 40.2629 45.5896 41.1672 45.3635C41.2481 45.3433 41.3325 45.3399 41.4168 45.3196C44.6727 44.5976 47.9286 43.8756 51.1845 43.1569C52.3722 42.8937 53.3135 42.2797 53.8871 41.2C54.4978 40.0461 54.68 38.8449 53.8669 37.7045C53.0436 36.554 51.8762 36.3549 50.5671 36.635C48.8126 37.0095 47.0413 37.3165 45.3037 37.7484C40.7623 38.8787 36.5583 38.268 32.5837 35.7071C30.367 34.2799 27.823 33.8987 25.2149 34.3609C23.0353 34.7489 20.8726 35.2314 18.7031 35.6734C17.782 35.8623 16.8643 36.058 15.9297 36.2571C17.2827 42.6204 18.6086 48.8657 19.9515 55.1886L19.9447 55.1919ZM17.7888 57.9046C17.6977 57.5639 17.5391 57.0578 17.4277 56.5449C15.9432 49.4696 14.462 42.3944 12.9842 35.3157C12.6131 33.5444 11.9551 33.1058 10.204 33.4938C8.37194 33.8987 6.53649 34.2968 4.70104 34.6983C2.79473 35.1133 2.46745 35.6295 2.86558 37.5021C3.85754 42.1616 4.836 46.8211 5.8212 51.4839C6.39816 54.227 6.96499 56.97 7.55206 59.7097C7.79499 60.8501 8.50015 61.4878 9.45499 61.3022C11.7932 60.8535 14.1246 60.3541 16.4459 59.8244C17.2725 59.6355 17.7685 58.9067 17.7854 57.908L17.7888 57.9046Z" fill="#5076F6"/>
<path id="Vector_2" d="M47.2302 3.1378C48.6136 1.99739 50.2702 0.948079 52.1967 0.435232C55.7462 -0.509486 58.9751 0.0775895 61.5697 2.78691C64.1744 5.50297 64.6029 8.77574 63.4524 12.2476C63.0441 13.4791 62.339 14.6262 61.6844 15.7599C61.4212 16.2154 61.3909 16.4954 61.6608 16.9509C62.9564 19.1406 62.6089 21.8331 60.8342 23.6146C59.0325 25.423 57.2139 27.218 55.402 29.0197C54.4843 29.9307 53.8365 29.9644 52.8648 29.0838C52.1832 28.463 51.5489 27.7882 50.8337 27.0797C50.611 27.2855 50.3883 27.4845 50.1757 27.6971C49.5583 28.3112 48.9678 28.9522 48.3268 29.5393C47.1999 30.5751 46.7208 30.5481 45.6343 29.4617C41.8015 25.6322 37.9652 21.8061 34.1425 17.9699C32.2666 16.0906 30.7955 13.9447 30.2624 11.2995C29.564 7.8344 30.34 4.74045 33.0291 2.34154C35.7688 -0.101232 39.0011 -0.576966 42.3885 0.654542C44.0249 1.24836 45.5129 2.24032 47.2302 3.13443V3.1378ZM54.0794 15.9421C56.1646 14.768 56.2995 14.7477 58.5668 14.8219C58.8131 14.8287 59.1843 14.6499 59.2956 14.4441C59.9131 13.2901 60.6587 12.1531 61.0062 10.9115C62.3761 5.99895 58.7052 2.01764 53.6881 2.878C51.5354 3.24914 49.8012 4.39967 48.2391 5.86736C47.3314 6.72098 46.66 6.70749 45.7828 5.81675C44.089 4.09264 42.0309 3.10406 39.6455 2.77341C36.3896 2.32467 33.1033 4.87878 32.7524 8.14818C32.4319 11.1173 33.7376 13.4892 35.6372 15.5912C36.7472 16.816 37.9585 17.9496 39.1259 19.1238C41.7374 21.7487 44.3488 24.3737 46.9164 26.9548C47.5912 26.3104 48.2121 25.7166 49.0184 24.9439C48.5393 24.5525 47.986 24.2522 47.6486 23.7968C47.0278 22.9499 46.3462 22.0693 46.019 21.0942C44.9832 18.0272 47.0548 14.9771 50.2432 14.7376C51.6738 14.6296 52.9222 15.1965 54.0761 15.9421H54.0794ZM54.0187 26.4656C55.5775 24.9304 57.0992 23.4796 58.5567 21.9681C58.992 21.5159 59.3057 20.9221 59.5824 20.3452C59.9772 19.5219 59.7376 18.7459 59.164 18.088C58.6175 17.457 57.8785 17.2276 57.1093 17.5346C56.448 17.7978 55.8103 18.1723 55.2333 18.6008C54.3662 19.2452 53.8466 19.252 52.9795 18.5941C52.4532 18.1926 51.8796 17.818 51.2689 17.565C50.4558 17.2276 49.6359 17.3626 49.0421 18.0576C48.4145 18.7931 48.2019 19.6737 48.7013 20.5544C49.0691 21.2055 49.5144 21.8398 50.0239 22.3864C51.306 23.7563 52.6455 25.0755 54.0153 26.469L54.0187 26.4656Z" fill="#5076F6"/>
</g>
</svg>
