<svg width="65" height="64" viewBox="0 0 65 64" fill="none" xmlns="http://www.w3.org/2000/svg">
<g id="Group 33">
<path id="Vector" d="M8.26854 64V61.025C7.51381 61.3145 6.8082 61.6945 6.05606 61.8547C2.98804 62.5138 0.0466835 60.1695 0.0234215 57.024C-0.012764 51.821 -0.00242531 46.6181 0.0234215 41.4125C0.0337602 39.2776 1.6466 37.5303 3.77896 37.2305C5.64509 36.9695 7.47763 38.099 8.06176 39.9108C8.57353 41.4952 8.20392 42.9116 7.00463 44.0334C6.42308 44.5762 6.23181 45.1086 6.32745 45.8814C6.5213 47.4374 6.62727 49.0037 6.77201 50.5674C6.7746 50.6062 6.8082 50.6424 6.85472 50.7329C6.97103 50.6527 7.08734 50.5855 7.18556 50.4977C9.21194 48.6522 11.5433 47.3857 14.2081 46.7266C14.4175 46.6749 14.6527 46.4268 14.7354 46.2174C14.906 45.7858 14.9809 45.3154 15.1024 44.8372C13.0347 43.5785 12.2024 41.7201 12.4299 39.275C12.0628 39.275 11.7501 39.2776 11.4374 39.275C10.2174 39.2621 9.27398 38.7425 8.67433 37.6828C8.07469 36.6179 8.14706 35.5531 8.76738 34.4985C8.8992 34.2736 8.94314 33.9402 8.89403 33.6792C8.75446 32.9193 8.51667 32.1801 8.37193 31.4227C8.04109 29.6936 8.5787 28.2255 9.87362 27.0727C10.2458 26.7419 10.3414 26.4291 10.3414 25.9768C10.3311 20.8592 10.3259 15.7415 10.3414 10.6238C10.3466 8.1529 12.2438 6.22473 14.6398 6.24799C16.2423 6.2635 17.4545 7.01306 18.1704 8.43721C18.889 9.86395 18.7261 11.2674 17.7982 12.5727C17.7233 12.6787 17.6535 12.8027 17.5501 12.8673C16.4956 13.5135 16.6015 14.4879 16.7127 15.5192C16.9453 17.6542 17.1133 19.7995 17.3097 21.9396C17.333 22.1929 17.3614 22.4462 17.3899 22.7072C20.6336 23.0277 23.9885 22.0636 27.0023 23.9039C27.0565 23.7902 27.0927 23.7385 27.1082 23.6791C27.2349 23.1802 27.3564 22.6814 27.4959 22.1308C26.55 21.5544 25.6841 20.8385 25.3171 19.7762C24.9733 18.7811 24.8363 17.7162 24.5804 16.5686C24.4124 16.5686 24.0764 16.5764 23.7404 16.5686C21.2901 16.5066 19.8892 13.9297 21.1402 11.8257C21.2824 11.5853 21.3289 11.2261 21.2798 10.9495C21.1506 10.2103 20.9179 9.49176 20.7706 8.75513C20.3286 6.53489 21.4917 4.39736 23.5647 3.50824C23.9213 3.35574 24.2651 3.10244 24.5262 2.81554C26.139 1.01919 28.1344 0.0654466 30.5459 0.0499385C32.4585 0.0370152 34.397 -0.102557 36.2787 0.150741C41.4713 0.848604 44.516 5.79826 42.9368 10.7789C42.7765 11.2829 42.7895 11.6603 43.0428 12.1514C44.043 14.0873 42.6344 16.4342 40.4426 16.5531C40.0781 16.5738 39.7137 16.5557 39.2407 16.5557C39.2407 16.8684 39.2407 17.1579 39.2407 17.4474C39.2407 19.3032 38.4886 20.7816 36.9584 21.8233C36.5992 22.0688 36.5966 22.2833 36.6509 22.6581C36.7827 23.5498 37.173 23.9892 38.119 24.258C39.525 24.6612 40.8613 24.9714 42.3604 24.8551C44.193 24.7129 46.0668 24.7439 47.8942 24.9585C52.2184 25.4702 55.6431 29.4015 55.7542 33.7748C55.7852 35.018 55.8033 36.2664 55.8989 37.5045C55.9351 37.9723 56.1678 38.4272 56.2686 38.7529C57.1215 38.254 57.8659 37.6105 58.724 37.3597C61.2751 36.6128 63.9606 38.603 63.9916 41.2781C64.0484 46.5896 64.082 51.9011 63.9812 57.2101C63.9114 60.9501 59.6493 63.1729 56.4055 61.2783C56.2246 61.1724 56.0489 61.0561 55.7878 60.8932V63.9897H8.26854V64ZM26.8549 10.3757C26.8549 12.7846 26.8472 15.1238 26.8549 17.4603C26.8627 19.3523 28.1705 20.6679 30.0496 20.6834C31.3161 20.6937 32.5852 20.6886 33.8542 20.6834C35.8677 20.6757 37.1652 19.3885 37.1704 17.3828C37.1756 15.2763 37.1704 13.1723 37.1704 11.0658C37.1704 10.841 37.1704 10.6135 37.1704 10.3628H40.8535C42.3036 6.98462 40.0652 2.79228 36.3976 2.27276C34.4565 1.99878 32.4559 2.11251 30.4812 2.12285C28.6099 2.13319 27.0591 2.90859 25.9245 4.39736C25.5652 4.87036 25.1646 5.15209 24.614 5.3356C23.3786 5.74657 22.629 6.75717 22.7453 7.95129C22.8228 8.76805 23.0787 9.56672 23.2571 10.3731H26.8524L26.8549 10.3757ZM22.2465 61.94H28.9382V55.8376H31.0137V61.9504H35.0716C35.0871 61.8392 35.0975 61.7953 35.0975 61.7539C35.1182 55.7135 30.2538 49.8153 24.322 48.7142C24.048 48.6625 23.7197 48.7142 23.4587 48.8202C20.9024 49.8515 18.3591 49.8541 15.8029 48.8228C15.5237 48.7116 15.167 48.6599 14.8776 48.7271C11.869 49.4198 9.35927 50.9474 7.38199 53.3201C7.21141 53.5243 7.12353 53.8526 7.11577 54.1265C7.10285 54.6331 7.18039 55.1423 7.22174 55.7006C6.51613 55.7601 5.86479 55.8143 5.17727 55.8712C4.98083 53.7543 4.79215 51.7073 4.60088 49.6318H2.1015C2.1015 52.2139 2.02913 54.7701 2.13252 57.316C2.18163 58.5489 3.02423 59.3553 4.20284 59.7844C6.20597 60.5107 8.4262 58.3809 8.27371 56.7474C8.24528 56.4372 8.26854 56.1245 8.26854 55.8221H10.3492V61.9478H22.2439L22.2465 61.94ZM51.6291 34.4468C51.6291 35.6539 51.642 36.985 51.6265 38.3161C51.6058 40.0323 51.1612 41.702 49.8922 42.8289C48.7549 43.8395 48.773 44.7933 49.2021 46.0184C49.4579 46.7473 49.918 47.0135 50.6521 46.6801C52.7922 45.7108 54.3585 44.1574 55.3846 42.0432C55.5604 41.6813 55.5138 41.4384 55.276 41.1204C54.4774 40.0556 53.9268 38.8589 53.8105 37.5252C53.7046 36.2871 53.7278 35.0387 53.6813 33.7929C53.5546 30.407 50.9855 27.4346 47.6228 27.0262C45.8213 26.8065 43.9758 26.8427 42.1536 26.9073C39.2691 27.0107 37.1626 28.4245 35.8341 30.9911C35.038 32.5264 35.0794 34.1883 35.1207 35.8451C35.1698 37.8482 34.6477 39.6627 33.4433 41.2781C33.3373 41.4203 33.2727 41.6968 33.3373 41.8442C34.3634 44.1419 36.0357 45.809 38.3774 46.7395C38.6617 46.8533 39.3415 46.6723 39.4294 46.4578C39.7292 45.7341 39.9618 44.9354 39.9799 44.16C39.9877 43.8266 39.4139 43.4777 39.1063 43.1365C39.0624 43.0874 39.021 43.0409 38.9771 42.9918C37.478 41.3091 37.098 39.3008 37.1626 37.1194C37.2324 34.7647 38.0569 32.7771 39.7215 31.1178C39.9799 30.8593 40.1686 30.8412 40.4969 30.9885C41.7065 31.5365 42.9006 32.1671 44.1697 32.5367C46.5941 33.2449 49.0651 33.7981 51.6316 34.4468H51.6291ZM47.0051 61.9426H53.7046V55.8324H55.7284C55.8145 57.0765 56.0213 57.9372 56.3487 58.4145C57.2223 59.6888 58.5224 60.1902 59.8613 59.7689C61.1562 59.3605 61.9471 58.2077 61.9523 56.6983C61.9574 54.5272 61.9523 52.356 61.9523 50.1849C61.9523 49.9988 61.929 49.8153 61.9161 49.6395H59.4322C59.2358 51.7435 59.0419 53.806 58.8455 55.8815C58.1114 55.8092 57.4782 55.7471 56.7958 55.6825C56.8346 55.3026 56.8372 54.9795 56.9044 54.6693C57.0569 53.9508 56.8088 53.4183 56.3099 52.8859C54.3766 50.8182 52.0633 49.4121 49.3106 48.7685C48.9436 48.6832 48.4913 48.7194 48.1423 48.8564C45.8937 49.7378 43.5985 49.929 41.3498 49.0502C40.2591 48.6238 39.3183 48.7246 38.318 49.0916C37.7158 49.3139 37.1135 49.5517 36.5371 49.836C35.4231 50.3865 34.3867 51.0585 33.4821 51.9502C34.671 53.4002 35.6635 54.9252 36.1805 56.6673C36.6896 58.3783 37.0024 60.1488 37.4056 61.9168H41.921L47.0103 61.9426H47.0051ZM10.8661 32.9787C12.3937 33.3406 13.6214 32.9477 14.7225 32.0198C15.1464 31.6631 15.6607 31.4124 16.1053 31.0764C16.4154 30.8412 16.6455 30.8619 16.9608 31.0764C18.2325 31.9448 19.6075 32.6789 21.1454 32.8133C23.5776 33.0278 26.0253 33.0692 28.4109 33.1803C29.9721 29.8021 27.6975 25.4806 24.0299 24.9895C21.8562 24.6974 19.6101 24.7982 17.408 24.899C15.8468 24.9714 14.5415 25.7907 13.5904 27.0469C13.2079 27.5509 12.7788 27.8611 12.1817 28.0627C10.8868 28.4943 10.1476 29.7246 10.3854 30.9756C10.5172 31.6683 10.7188 32.3481 10.8713 32.9735L10.8661 32.9787ZM35.7772 47.7579C33.4717 46.282 31.9209 44.1833 30.9697 41.6038C30.825 41.2109 30.856 41.0041 31.1455 40.725C32.4508 39.4637 33.0685 37.9103 33.0452 36.0984C33.0375 35.4755 33.0401 34.8526 33.0452 34.2297C33.0711 30.9937 34.4125 28.4349 37.005 26.5144C37.129 26.4214 37.2428 26.3154 37.3694 26.2094C36.7129 25.889 36.152 25.951 35.5265 26.2043C34.839 26.4834 34.092 26.698 33.3554 26.7574C32.2001 26.8479 31.0344 26.7807 29.8635 26.7807C31.1558 29.0552 31.3109 31.4563 30.4244 33.948C30.3572 34.1392 30.4606 34.4391 30.5717 34.6407C31.7167 36.7317 30.3003 39.2104 27.9095 39.2724C27.5735 39.2802 27.2375 39.2724 26.8549 39.2724C26.8549 39.6911 26.8627 40.0323 26.8549 40.3709C26.8058 41.9915 26.1778 43.3588 24.8647 44.3048C24.2754 44.7312 24.0945 45.1215 24.3866 45.7574C24.4202 45.8323 24.4279 45.9254 24.4383 46.0081C24.5003 46.4578 24.7226 46.6646 25.1982 46.7964C26.2062 47.0781 27.2323 47.3831 28.1525 47.869C29.5094 48.585 30.7785 49.4638 32.0708 50.265C33.2417 49.4715 34.4823 48.6341 35.7798 47.7553L35.7772 47.7579ZM24.7769 35.2093C24.6683 35.1757 24.627 35.1524 24.5882 35.1524C21.8329 35.2455 19.2017 34.8009 16.7747 33.4129C16.6687 33.3535 16.4671 33.3509 16.3663 33.4129C15.7822 33.7748 15.2032 34.147 14.6527 34.5554C14.5338 34.6432 14.4769 34.8862 14.4769 35.0568C14.4666 36.8402 14.4459 38.6236 14.4795 40.4045C14.5105 42.0303 15.8235 43.3459 17.4493 43.3846C18.9097 43.4208 20.3726 43.4234 21.8303 43.3846C23.3734 43.3433 24.6993 42.1078 24.7614 40.5751C24.8311 38.7968 24.7769 37.016 24.7769 35.2093ZM40.4348 33.2708C40.104 33.9945 39.6775 34.6252 39.5328 35.3153C39.3286 36.2897 39.2536 37.3106 39.2614 38.3109C39.2769 40.9757 41.3395 43.1598 43.9733 43.3846C46.5993 43.6095 49.0134 41.7899 49.4476 39.1613C49.613 38.1558 49.5587 37.1142 49.6078 36.0338C46.4339 35.535 43.4382 34.682 40.4374 33.2734L40.4348 33.2708ZM12.404 25.0386C13.2595 24.4984 14.0505 23.953 14.8879 23.493C15.2497 23.2939 15.3506 23.1233 15.3092 22.7098C15.012 19.6961 14.7509 16.6772 14.4666 13.6608C14.4278 13.2447 14.5131 12.9294 14.8414 12.6425C15.2756 12.2599 15.684 11.8412 16.0639 11.4044C16.63 10.7531 16.6765 9.90014 16.2345 9.19194C15.7951 8.48891 14.9267 8.15807 14.0996 8.37777C13.0657 8.65433 12.4144 9.49176 12.4092 10.6109C12.3989 12.5882 12.4066 14.5655 12.4066 16.5428C12.4066 19.3781 12.4066 22.2135 12.4066 25.036L12.404 25.0386ZM2.09375 47.4891H4.40703C4.37602 47.135 4.3786 46.8119 4.3114 46.5043C3.98056 44.9303 4.05293 43.4958 5.59857 42.5291C5.70195 42.4645 5.81827 42.3482 5.84153 42.237C5.95008 41.7123 6.17495 41.154 6.08707 40.6552C5.92424 39.7351 5.04028 39.2 4.11238 39.2802C3.09143 39.368 2.14286 40.2003 2.11184 41.2316C2.04981 43.3071 2.09375 45.3852 2.09375 47.4891ZM61.9445 47.4994C61.9445 45.411 61.9704 43.3924 61.9342 41.3763C61.9187 40.5182 61.4457 39.8798 60.6677 39.4999C59.7553 39.0527 58.7473 39.2879 58.1916 40.0607C57.6359 40.831 57.7186 41.7744 58.419 42.5239C58.6982 42.8212 58.9644 43.1442 59.2875 43.382C59.8664 43.8111 59.9621 44.3461 59.8613 45.0156C59.7398 45.8297 59.6984 46.6568 59.6209 47.4994H61.9445ZM56.7545 43.8731C55.7981 45.4937 54.5187 46.7886 53.0429 47.7553C54.4438 48.7323 55.8214 49.6964 57.2146 50.6682C57.2275 50.6191 57.2688 50.5209 57.2766 50.4201C57.4187 48.8616 57.4885 47.2927 57.7186 45.7496C57.853 44.8424 57.4368 44.3668 56.7545 43.8757V43.8731ZM41.9546 45.0698C41.7995 45.7108 41.6548 46.3079 41.5152 46.8869C43.2004 47.701 45.8032 47.6907 47.2894 46.8636C47.1447 46.282 46.9973 45.6876 46.85 45.0957C44.1102 45.5842 44.0999 45.5842 41.9546 45.0698ZM29.4655 22.7641C29.3466 23.2629 29.2328 23.7333 29.1165 24.2244C31.0912 24.974 32.9755 24.9714 34.9191 24.2192C34.7899 23.6997 34.6736 23.2319 34.5573 22.7641H29.4681H29.4655ZM22.1715 45.4782H17.0823C16.966 45.9564 16.8497 46.4268 16.7256 46.9308C18.6848 47.6829 20.569 47.6829 22.5282 46.9308C22.4041 46.4268 22.2904 45.959 22.1715 45.4782ZM24.7433 14.4698V12.4719C23.3501 12.3608 22.766 12.6451 22.7324 13.4231C22.6988 14.2295 23.2907 14.5474 24.7433 14.4698ZM39.2795 12.4486V14.4776C39.9593 14.4595 40.7062 14.7206 41.1094 13.9969C41.2645 13.7177 41.2645 13.2085 41.1094 12.9294C40.7062 12.2057 39.9593 12.4667 39.2795 12.4486ZM12.3678 35.155C11.6726 35.1783 10.9178 34.9146 10.5224 35.6487C10.3699 35.9304 10.3802 36.4422 10.5405 36.7187C10.954 37.4321 11.6932 37.1711 12.3678 37.184V35.155ZM26.8834 37.1917C27.5864 37.1685 28.3411 37.4295 28.734 36.6903C28.8839 36.4086 28.871 35.8968 28.7107 35.6228C28.2946 34.9146 27.558 35.1731 26.886 35.1654V37.1943L26.8834 37.1917Z" fill="#F9F9F9"/>
<path id="Vector_2" d="M27.9792 7.74479C28.5892 7.43722 29.1578 7.15032 29.8221 6.81689C30.5044 8.17643 31.1816 9.52047 31.8898 10.9317C31.2824 11.2419 30.7034 11.5365 30.0495 11.8699C29.3542 10.482 28.677 9.13535 27.9818 7.74738L27.9792 7.74479Z" fill="#F9F9F9"/>
<path id="Vector_3" d="M32.107 7.74192C32.7609 7.41625 33.3295 7.13194 33.955 6.82178C34.6451 8.19941 35.312 9.53052 36.015 10.934C35.4102 11.2416 34.8338 11.5362 34.1773 11.8696C33.482 10.4843 32.8074 9.14023 32.107 7.74192Z" fill="#F9F9F9"/>
</g>
</svg>
