<svg width="64" height="64" viewBox="0 0 64 64" fill="none" xmlns="http://www.w3.org/2000/svg">
<g id="Group 35">
<path id="Vector" d="M11.7192 61.8799H42.106C42.106 61.6221 42.106 61.3818 42.106 61.139C42.106 55.307 42.106 49.4774 42.106 43.6453C42.106 43.4176 42.0985 43.1848 42.1285 42.9595C42.2036 42.4164 42.6291 42.0534 43.1648 42.0835C43.7129 42.116 44.0508 42.4114 44.1309 42.962C44.161 43.1673 44.156 43.3775 44.156 43.5853C44.156 49.8754 44.156 56.1655 44.156 62.4531C44.156 63.7046 43.8681 63.99 42.6091 63.99C32.1139 63.99 21.6187 63.9875 11.1235 64C10.5152 64 10.0622 63.8273 9.63166 63.3918C6.62552 60.3606 3.60687 57.3419 0.5782 54.3333C0.180218 53.9428 0 53.5273 0 52.9591C0.0100121 35.7983 0.0100121 18.6376 0.0100121 1.47679C0.0100121 0.320388 0.332903 0 1.49932 0C15.2234 0 28.945 0 42.6692 0C43.8431 0 44.156 0.30537 44.156 1.47178C44.156 7.80195 44.156 14.1346 44.156 20.4648C44.156 20.6725 44.1635 20.8853 44.1234 21.088C44.0233 21.6037 43.6879 21.8915 43.1673 21.9065C42.6166 21.924 42.2562 21.6362 42.141 21.098C42.091 20.8578 42.1085 20.5999 42.1085 20.3521C42.1085 14.5426 42.1085 8.73057 42.1085 2.92104V2.13258H2.13008V52.2858C2.40041 52.2858 2.6432 52.2858 2.88599 52.2858C5.32144 52.2858 7.7594 52.2858 10.1948 52.2858C11.3863 52.2858 11.7142 52.6162 11.7167 53.8102C11.7192 56.4734 11.7167 59.1391 11.7167 61.8849L11.7192 61.8799ZM9.60413 54.4084H3.88721C5.76949 56.2907 7.72435 58.2455 9.60413 60.1253V54.4084Z" fill="#77F1A1"/>
<path id="Vector_2" d="M63.9899 15.7585C63.9674 17.363 63.3116 18.5344 62.2803 19.5656C54.8088 27.0221 47.2922 34.4361 39.9132 41.9853C37.0047 44.9614 33.896 47.567 30.1965 49.4843C28.4268 50.4005 26.7473 51.4943 25.0227 52.503C24.1416 53.0186 23.4058 52.9661 22.795 52.3678C22.1643 51.7496 22.1092 50.9912 22.6373 50.0926C24.6097 46.7385 26.5796 43.387 28.562 40.0379C28.7297 39.7551 28.94 39.4872 29.1702 39.2545C37.9834 30.4288 46.8016 21.6081 55.6223 12.7899C57.6622 10.7499 60.3605 10.5697 62.3955 12.3469C63.4568 13.2755 63.9499 14.4795 63.9924 15.7585H63.9899ZM50.4986 20.9873C44.0808 27.4051 37.643 33.8454 31.2628 40.2256C32.4667 41.4321 33.7082 42.6736 34.8997 43.865C41.2949 37.4698 47.7327 31.0295 54.1405 24.6242C52.9465 23.4303 51.715 22.1988 50.5011 20.9873H50.4986ZM58.736 20.2089C59.507 19.4254 60.2954 18.6295 61.0839 17.8285C61.1715 17.7409 61.2516 17.6433 61.3292 17.5457C62.1627 16.4894 62.0926 14.965 61.169 14.0139C60.2454 13.0602 58.6585 12.88 57.6597 13.7661C56.7061 14.6121 55.8951 15.6158 55.0366 16.5319C56.1955 17.6833 57.432 18.9123 58.736 20.2089ZM33.0299 45.3919C31.9136 44.2755 30.8247 43.1892 29.7434 42.1079C29.7835 42.0604 29.7509 42.0904 29.7309 42.1254C29.2253 42.9815 28.7172 43.84 28.2141 44.6961C27.595 45.7473 27.7352 46.6868 28.6346 47.5145C28.6496 47.5295 28.6621 47.5545 28.6796 47.557C28.8549 47.5845 29.0801 47.6922 29.2028 47.6221C30.5194 46.8762 31.8184 46.1028 33.0324 45.3894L33.0299 45.3919ZM57.0916 21.7658C55.8225 20.4992 54.5935 19.2703 53.372 18.0513C52.944 18.4693 52.476 18.9248 52.0905 19.3028C53.3445 20.5643 54.5835 21.8083 55.8025 23.0323C56.2155 22.6243 56.671 22.1788 57.0916 21.7633V21.7658ZM26.9776 48.9537C26.7123 48.6508 26.487 48.393 26.2192 48.0877C25.8512 48.7109 25.5033 49.3041 25.1529 49.8974C25.1804 49.9249 25.2079 49.9524 25.238 49.9774C25.8212 49.6345 26.4044 49.2916 26.9776 48.9537Z" fill="#77F1A1"/>
<path id="Vector_3" d="M22.1368 9.62695C26.6723 9.62695 31.2103 9.62695 35.7458 9.63196C36.0336 9.63196 36.3365 9.64197 36.6043 9.72958C37.0699 9.88477 37.2901 10.2552 37.2551 10.7483C37.22 11.2114 36.9672 11.5268 36.5117 11.6344C36.2714 11.692 36.0186 11.7095 35.7708 11.7095C26.6547 11.712 17.5412 11.712 8.42517 11.712C8.34257 11.712 8.25747 11.712 8.17487 11.712C7.36388 11.6819 6.8808 11.284 6.89582 10.6507C6.90833 10.0199 7.39642 9.63196 8.21241 9.63196C12.853 9.62946 17.4937 9.63196 22.1343 9.63196L22.1368 9.62695Z" fill="#77F1A1"/>
<path id="Vector_4" d="M22.1142 15.1309C26.6497 15.1309 31.1877 15.1309 35.7232 15.1359C36.0111 15.1359 36.3114 15.1484 36.5843 15.231C37.0573 15.3762 37.3602 15.7616 37.2326 16.2247C37.1374 16.5676 36.8171 16.8855 36.5217 17.1233C36.359 17.2534 36.0411 17.2134 35.7958 17.2134C26.6598 17.2159 17.5237 17.2159 8.39013 17.2159C8.34758 17.2159 8.30753 17.2159 8.26498 17.2159C7.39643 17.2009 6.90333 16.8229 6.89832 16.1771C6.89582 15.5288 7.39893 15.1334 8.25747 15.1334C12.7304 15.1309 17.2058 15.1334 21.6787 15.1334C21.8239 15.1334 21.9691 15.1334 22.1168 15.1334L22.1142 15.1309Z" fill="#77F1A1"/>
<path id="Vector_5" d="M22.1117 26.1367C26.6472 26.1367 31.1852 26.1367 35.7207 26.1367C36.7645 26.1367 37.2576 26.4696 37.2626 27.173C37.2676 27.8813 36.772 28.2242 35.7332 28.2242C26.6397 28.2242 17.5462 28.2242 8.4502 28.2242C7.41895 28.2242 6.89832 27.8738 6.89332 27.1855C6.88831 26.4947 7.41395 26.1367 8.43768 26.1367C12.9957 26.1367 17.5537 26.1367 22.1092 26.1367H22.1117Z" fill="#77F1A1"/>
<path id="Vector_6" d="M22.0992 20.6325C26.6347 20.6325 31.1727 20.6325 35.7082 20.635C35.976 20.635 36.2538 20.64 36.5091 20.7076C37.0122 20.8402 37.275 21.1981 37.255 21.7213C37.235 22.2119 36.9697 22.5423 36.4841 22.6499C36.2438 22.705 35.991 22.72 35.7432 22.72C26.6297 22.7225 17.5136 22.7225 8.40009 22.7225C8.31749 22.7225 8.23239 22.7225 8.14979 22.7225C7.37885 22.6925 6.90828 22.3045 6.89327 21.6937C6.88075 21.068 7.38136 20.6375 8.17482 20.635C12.8154 20.63 17.4561 20.6325 22.0967 20.6325H22.0992Z" fill="#77F1A1"/>
<path id="Vector_7" d="M19.6437 31.6412C23.3682 31.6412 27.0953 31.6412 30.8198 31.6412C31.8535 31.6412 32.3691 31.9867 32.3742 32.6775C32.3792 33.3733 31.861 33.7288 30.8373 33.7288C23.3657 33.7288 15.8942 33.7288 8.42265 33.7288C8.38009 33.7288 8.34005 33.7288 8.29749 33.7288C7.3964 33.7188 6.88078 33.3258 6.8958 32.6625C6.91332 32.0167 7.40642 31.6438 8.27997 31.6412C12.0671 31.6387 15.8566 31.6412 19.6437 31.6412Z" fill="#77F1A1"/>
<path id="Vector_8" d="M14.9505 39.2327C12.7429 39.2327 10.5377 39.2352 8.33001 39.2277C8.06469 39.2277 7.72177 39.2502 7.54906 39.1025C7.27373 38.8697 6.92831 38.4943 6.94583 38.1964C6.96335 37.866 7.30627 37.5006 7.59662 37.2578C7.76933 37.1126 8.11224 37.1451 8.38007 37.1451C12.7929 37.1401 17.2083 37.1401 21.6211 37.1401C21.6637 37.1401 21.7037 37.1401 21.7463 37.1401C22.6073 37.1527 23.1129 37.5356 23.1179 38.1789C23.1229 38.8222 22.6123 39.2277 21.7613 39.2302C19.491 39.2352 17.2233 39.2302 14.953 39.2302L14.9505 39.2327Z" fill="#77F1A1"/>
<path id="Vector_9" d="M31.7459 55.7398C30.3342 55.7398 28.9199 55.7523 27.5082 55.7348C26.8199 55.7248 26.3919 55.3243 26.3744 54.7386C26.3543 54.1554 26.7623 53.7399 27.4356 53.6673C27.6209 53.6473 27.8086 53.6573 27.9963 53.6548C29.9287 53.6548 31.861 53.6548 33.7933 53.6548C34.4366 53.6548 35.0824 53.6548 35.7257 53.6548C35.8709 53.6548 36.0185 53.6498 36.1612 53.6623C36.8796 53.7274 37.2901 54.1404 37.26 54.7561C37.23 55.3418 36.8095 55.7248 36.1112 55.7323C34.6569 55.7473 33.2026 55.7373 31.7484 55.7373L31.7459 55.7398Z" fill="#77F1A1"/>
</g>
</svg>
