<svg width="883" height="1279" viewBox="0 0 883 1279" fill="none" xmlns="http://www.w3.org/2000/svg">
<path fill-rule="evenodd" clip-rule="evenodd" d="M449.588 1.18659C462.733 2.82488 475.426 7.03665 486.942 13.5814C498.459 20.1262 508.574 28.8759 516.711 39.3308C524.847 49.7857 530.844 61.7411 534.361 74.5144C537.878 87.2877 538.844 100.629 537.206 113.776L513.537 303.038H780.896L807.726 88.7559C811.043 62.2043 824.77 38.0582 845.886 21.6295C867.002 5.20075 893.779 -2.16489 920.325 1.15295C946.871 4.47078 971.012 18.2003 987.437 39.3212C1003.86 60.442 1011.23 87.2241 1007.91 113.776L984.239 303.038H1143.14C1169.89 303.038 1195.54 313.668 1214.46 332.587C1233.37 351.507 1244 377.168 1244 403.925C1244 430.682 1233.37 456.342 1214.46 475.262C1195.54 494.182 1169.89 504.811 1143.14 504.811H959.023L925.401 773.841H1109.51C1136.26 773.841 1161.92 784.47 1180.84 803.39C1199.75 822.31 1210.38 847.971 1210.38 874.728C1210.38 901.484 1199.75 927.145 1180.84 946.065C1161.92 964.985 1136.26 975.614 1109.51 975.614H900.185L873.422 1189.9C870.105 1216.45 856.379 1240.59 835.262 1257.02C814.146 1273.45 787.37 1280.82 760.824 1277.5C734.278 1274.18 710.137 1260.45 693.712 1239.33C677.286 1218.21 669.922 1191.43 673.239 1164.88L696.842 975.614H429.55L402.787 1189.9C399.47 1216.45 385.743 1240.59 364.627 1257.02C343.511 1273.45 316.734 1280.82 290.188 1277.5C263.642 1274.18 239.501 1260.45 223.076 1239.33C206.651 1218.21 199.287 1191.43 202.604 1164.88L226.139 975.614H100.865C74.1138 975.614 48.4585 964.985 29.5426 946.065C10.6268 927.145 0 901.484 0 874.728C0 847.971 10.6268 822.31 29.5426 803.39C48.4585 784.47 74.1138 773.841 100.865 773.841H251.355L284.977 504.811H134.486C107.735 504.811 82.0801 494.182 63.1643 475.262C44.2484 456.342 33.6216 430.682 33.6216 403.925C33.6216 377.168 44.2484 351.507 63.1643 332.587C82.0801 313.668 107.735 303.038 134.486 303.038H310.193L337.023 88.7559C338.653 75.6029 342.858 62.9 349.398 51.373C355.938 39.846 364.684 29.7209 375.138 21.5762C385.591 13.4314 397.547 7.42669 410.321 3.90508C423.096 0.383473 436.439 -0.585994 449.588 1.05207V1.18659ZM722.192 773.841L755.814 504.811H488.388L454.766 773.841H722.192Z" fill="#2C3D4D"/>
</svg>
