<svg width="79" height="81" viewBox="0 0 79 81" fill="none" xmlns="http://www.w3.org/2000/svg">
<g clip-path="url(#clip0_7_2)">
<path d="M24.7262 34.2024C24.2076 33.939 23.6243 33.8083 22.9805 33.8083H18.7243V44.1128H20.9886V40.3622H22.9805C23.6243 40.3622 24.2076 40.2295 24.7262 39.96C25.2449 39.6925 25.6566 39.3127 25.9593 38.8227C26.262 38.3307 26.4134 37.7509 26.4134 37.0791C26.4134 36.4074 26.262 35.8255 25.9593 35.3355C25.6566 34.8435 25.2449 34.4678 24.7262 34.2044V34.2024ZM23.9613 37.8938C23.8261 38.1184 23.6445 38.2878 23.4124 38.4042C23.1823 38.5206 22.926 38.5798 22.6475 38.5798H20.9886V35.5887H22.6475C22.926 35.5887 23.1823 35.6479 23.4124 35.7643C23.6425 35.8807 23.8261 36.0522 23.9613 36.2747C24.0966 36.4993 24.1632 36.7668 24.1632 37.0771C24.1632 37.3874 24.0966 37.6712 23.9613 37.8938Z" fill="#77F1A1"/>
<path d="M30.6394 41.3258L29.2428 37.0178H26.8614L29.5375 43.6247L27.9431 47.1038H30.2095L31.4507 44.1413L34.4496 37.0178H32.0702L30.6394 41.3258Z" fill="#77F1A1"/>
<path d="M41.6644 41.9364C41.279 42.1018 40.8269 42.1855 40.3083 42.1855C39.8663 42.1855 39.4586 42.1079 39.0893 41.9527C38.718 41.7976 38.4011 41.5791 38.1367 41.2953C37.8724 41.0135 37.6645 40.6726 37.5172 40.2745C37.3678 39.8763 37.2932 39.4333 37.2932 38.9453C37.2932 38.4574 37.3678 38.0306 37.5172 37.6325C37.6665 37.2344 37.8724 36.8934 38.1367 36.6117C38.4011 36.3299 38.718 36.1135 39.0893 35.9624C39.4586 35.8113 39.8663 35.7358 40.3083 35.7358C40.8088 35.7358 41.2487 35.8195 41.6281 35.9849C42.0075 36.1502 42.3325 36.3789 42.6029 36.6709L44.1185 35.1233C43.6463 34.6659 43.0973 34.3066 42.4657 34.0432C41.836 33.7798 41.1175 33.6492 40.3083 33.6492C39.5474 33.6492 38.8431 33.7839 38.1953 34.0514C37.5454 34.3188 36.9804 34.6904 36.5 35.1682C36.0197 35.6459 35.6443 36.2074 35.3739 36.8546C35.1055 37.5018 34.9703 38.2001 34.9703 38.9494C34.9703 39.6987 35.1055 40.397 35.3739 41.0442C35.6423 41.6914 36.0197 42.2569 36.5061 42.7449C36.9925 43.2308 37.5596 43.6085 38.2094 43.876C38.8592 44.1435 39.5636 44.2782 40.3224 44.2782C41.1498 44.2782 41.8784 44.1475 42.508 43.8842C43.1377 43.6208 43.6987 43.2614 44.1891 42.8041L42.6594 41.2565C42.3809 41.5485 42.0479 41.7771 41.6644 41.9425V41.9364Z" fill="#77F1A1"/>
<path d="M50.407 37.3385C49.8298 37.018 49.176 36.8567 48.4454 36.8567C47.7148 36.8567 47.061 37.02 46.4838 37.3467C45.9066 37.6734 45.4505 38.1123 45.1134 38.6677C44.7764 39.223 44.6089 39.8498 44.6089 40.5501C44.6089 41.2504 44.7764 41.8833 45.1134 42.4468C45.4505 43.0103 45.9086 43.4554 46.4918 43.7821C47.0731 44.1088 47.7249 44.2721 48.4474 44.2721C49.1699 44.2721 49.8319 44.1088 50.409 43.7821C50.9862 43.4554 51.4423 43.0103 51.7794 42.4468C52.1164 41.8833 52.2839 41.2504 52.2839 40.5501C52.2839 39.8498 52.1164 39.2189 51.7794 38.6595C51.4423 38.1001 50.9862 37.6591 50.409 37.3385H50.407ZM49.8359 41.4342C49.7067 41.6914 49.5211 41.8915 49.2809 42.0324C49.0407 42.1733 48.7622 42.2447 48.4434 42.2447C48.1245 42.2447 47.8622 42.1733 47.622 42.0324C47.3818 41.8915 47.1941 41.6914 47.0589 41.4342C46.9237 41.1769 46.8571 40.887 46.8571 40.5664C46.8571 40.2459 46.9237 39.9437 47.0589 39.6906C47.1941 39.4374 47.3818 39.2414 47.622 39.1005C47.8622 38.9596 48.1366 38.8882 48.4434 38.8882C48.7501 38.8882 49.0367 38.9596 49.2728 39.1005C49.509 39.2414 49.6926 39.4353 49.8278 39.6844C49.963 39.9335 50.0296 40.2214 50.0296 40.5521C50.0296 40.8829 49.9651 41.1769 49.8359 41.4342Z" fill="#77F1A1"/>
<path d="M59.8701 38.2307C59.64 37.8223 59.3232 37.4936 58.9256 37.2466C58.526 36.9995 58.0679 36.875 57.5472 36.875C57.0265 36.875 56.526 36.9893 56.0982 37.218C55.9085 37.3201 55.7389 37.4426 55.5856 37.5814V37.02H53.3777V44.1128H55.5856V40.0702C55.5856 39.8273 55.638 39.6109 55.745 39.421C55.8499 39.2311 55.9952 39.0862 56.1769 38.9841C56.3605 38.882 56.5704 38.8309 56.8126 38.8309C57.1597 38.8309 57.4443 38.9453 57.6703 39.1739C57.8963 39.4026 58.0093 39.7007 58.0093 40.0723V44.1148H60.2172V39.5762C60.2172 39.0902 60.1022 38.6431 59.8701 38.2327V38.2307Z" fill="#77F1A1"/>
<path d="M78.5944 32.2179C74.8184 13.5487 58.3867 0 39.5212 0C35.0127 0 30.5869 0.755426 26.369 2.24586C22.2722 3.69342 18.4518 5.80249 15.0129 8.51385C11.6103 11.1987 8.67396 14.4021 6.2865 18.0322C3.8607 21.7236 2.06456 25.76 0.952564 30.0312C0.896056 30.2497 0.835512 30.4722 0.774968 30.6968C0.21998 32.761 -0.407661 35.1008 0.341068 37.2813C1.04136 39.3209 2.85567 40.8359 4.96462 41.1401C5.23707 41.1789 5.50952 41.1993 5.77793 41.1993C8.42976 41.1993 10.8112 39.325 11.4025 36.6422L11.4933 36.4054L11.5135 36.3339C12.3389 32.4384 13.5276 27.9426 16.0967 24.1246C18.4296 20.6558 21.5658 17.7035 25.1642 15.5863C28.8493 13.42 33.0692 12.1052 37.3678 11.7867C38.0802 11.7336 38.8048 11.7071 39.5192 11.7071C46.0297 11.7071 52.1507 13.8815 57.2182 17.9934C62.1405 21.987 65.6399 27.5873 67.0768 33.7634L67.4623 35.4111L67.981 33.7981C68.0112 33.7063 68.7418 31.5462 72.1666 30.6805C75.5591 29.823 77.666 32.4751 77.7629 32.6017L78.998 34.2147L78.5944 32.2158V32.2179ZM71.9406 29.7617C69.5995 30.3538 68.3422 31.5176 67.7004 32.3935C66.0658 26.4705 62.5845 21.1315 57.8096 17.2564C52.6472 13.0689 46.1528 10.7618 39.5232 10.7618C38.7846 10.7618 38.0379 10.7883 37.3033 10.8434C32.8634 11.1742 28.5022 12.5299 24.696 14.7696C20.9765 16.9562 17.7354 20.0086 15.3237 23.5938C12.6719 27.5363 11.4509 32.126 10.6073 36.1012L10.5185 36.338L10.4984 36.4074C9.96557 38.8983 7.59425 40.5643 5.10387 40.2029C3.338 39.9477 1.81834 38.6778 1.23308 36.9709C0.581226 35.0681 1.14227 32.9733 1.68717 30.948C1.74771 30.7213 1.80825 30.4967 1.86678 30.2762C2.95456 26.1051 4.7063 22.1646 7.07559 18.561C9.40654 15.0146 12.2743 11.8867 15.5962 9.26519C18.9523 6.61712 22.6839 4.5591 26.6838 3.1442C30.8028 1.69052 35.1217 0.951428 39.5252 0.951428C57.4362 0.951428 73.101 13.4588 77.3451 30.9071C76.2351 30.0639 74.3744 29.1492 71.9446 29.7638L71.9406 29.7617Z" fill="#77F1A1"/>
<path d="M4.17351 34.3372C3.30975 34.3372 2.60945 35.0456 2.60945 35.9195C2.60945 36.7933 3.30975 37.5018 4.17351 37.5018C5.03727 37.5018 5.73756 36.7933 5.73756 35.9195C5.73756 35.0456 5.03727 34.3372 4.17351 34.3372Z" fill="#77F1A1"/>
<path d="M20.2238 11.0967C19.9574 10.7762 19.6567 10.5597 19.3176 10.4474C18.9786 10.3351 18.6335 10.3209 18.2803 10.4066C17.9291 10.4924 17.5982 10.6639 17.2914 10.9252L16.3409 11.7317L15.2591 12.6484L19.3338 17.5689L20.4155 16.6521L18.9322 14.8616L19.8827 14.0551C20.1894 13.7938 20.4155 13.4957 20.5568 13.1568C20.698 12.8178 20.7444 12.4708 20.696 12.1135C20.6456 11.7562 20.4881 11.4172 20.2238 11.0967ZM19.3156 12.9465C19.251 13.0955 19.1521 13.2262 19.0189 13.3405L18.2278 14.0122L17.0452 12.583L17.8363 11.9113C17.9695 11.799 18.1148 11.7235 18.2702 11.6847C18.4256 11.648 18.581 11.6541 18.7344 11.7072C18.8878 11.7602 19.025 11.8603 19.1481 12.0093C19.2752 12.1625 19.3499 12.3197 19.3741 12.481C19.3983 12.6423 19.3782 12.7974 19.3136 12.9465H19.3156Z" fill="#77F1A1"/>
<path d="M27.6505 8.35655C27.4406 7.93392 27.1702 7.58275 26.8412 7.29895C26.5123 7.01516 26.145 6.80895 25.7413 6.68032C25.3377 6.54965 24.9179 6.50269 24.482 6.53944C24.0461 6.57619 23.6183 6.70074 23.1945 6.91716C22.7666 7.13562 22.4094 7.41125 22.1228 7.74404C21.8362 8.07684 21.6264 8.44638 21.4932 8.85064C21.36 9.25489 21.3075 9.67344 21.3358 10.1083C21.364 10.5412 21.4831 10.9699 21.695 11.3925C21.9028 11.809 22.1713 12.1582 22.5002 12.442C22.8292 12.7258 23.1985 12.932 23.6062 13.0647C24.0138 13.1954 24.4356 13.2444 24.8735 13.2117C25.3095 13.179 25.7434 13.0524 26.1712 12.834C26.589 12.6216 26.9401 12.346 27.2247 12.0112C27.5092 11.6743 27.7191 11.3048 27.8523 10.9005C27.9855 10.4962 28.038 10.0757 28.0077 9.63873C27.9774 9.20181 27.8584 8.7751 27.6505 8.35859V8.35655ZM26.3468 10.9985C26.1692 11.2803 25.9109 11.5069 25.5738 11.6784C25.3216 11.807 25.0713 11.8805 24.8191 11.9009C24.5668 11.9213 24.3286 11.8887 24.1006 11.805C23.8746 11.7213 23.6647 11.5885 23.473 11.4068C23.2812 11.2251 23.1198 11.0005 22.9846 10.729C22.8029 10.3676 22.7162 10.0164 22.7202 9.67752C22.7262 9.3386 22.8171 9.03031 22.9987 8.7506C23.1783 8.47293 23.4366 8.2463 23.7737 8.0748C24.0259 7.94617 24.2742 7.87063 24.5224 7.85021C24.7706 7.82979 25.0088 7.86042 25.2388 7.94209C25.4689 8.0258 25.6788 8.15646 25.8665 8.33409C26.0562 8.51172 26.2176 8.7363 26.3528 9.00581C26.5304 9.3631 26.6192 9.71427 26.6172 10.0573C26.6152 10.4003 26.5244 10.7147 26.3448 10.9965L26.3468 10.9985Z" fill="#77F1A1"/>
<path d="M32.5808 7.46237C32.8593 7.23166 33.0531 6.95807 33.162 6.64161C33.271 6.32515 33.2831 5.98418 33.1943 5.61872C33.1096 5.25938 32.9461 4.96334 32.7039 4.72854C32.4638 4.49375 32.1691 4.33654 31.824 4.25691C31.4769 4.17729 31.1015 4.18545 30.6939 4.2855L29.5496 4.56521L28.1772 4.90005L29.6666 11.1395L31.039 10.8046L30.4254 8.23209L30.5687 8.19738L33.0228 10.3187L34.6474 9.92261L32.044 7.787C32.2458 7.69716 32.4254 7.591 32.5808 7.46237ZM31.7413 6.60078C31.6262 6.7784 31.4325 6.9009 31.158 6.96828L30.1792 7.20716L29.8059 5.64322L30.7927 5.4023C31.0672 5.33493 31.2932 5.35739 31.4749 5.46968C31.6565 5.58197 31.7736 5.74939 31.826 5.97398C31.8846 6.2149 31.8543 6.42519 31.7413 6.60282V6.60078Z" fill="#77F1A1"/>
<path d="M39.3214 3.21973L33.9491 3.58111L34.0319 4.8245L36.0137 4.69179L36.3527 9.85318L37.7614 9.75722L37.4203 4.59583L39.4021 4.46312L39.3214 3.21973Z" fill="#77F1A1"/>
<path d="M44.2376 7.57071C44.2154 7.82388 44.1427 8.03825 44.0216 8.21384C43.9006 8.38738 43.7452 8.51805 43.5575 8.59972C43.3698 8.68343 43.1559 8.71405 42.9177 8.69159C42.6917 8.67118 42.4879 8.60176 42.3082 8.48538C42.1286 8.36901 41.9954 8.2118 41.9046 8.01375C41.8138 7.81775 41.7795 7.59112 41.8037 7.33795L42.1609 3.38116L40.7462 3.25049L40.3971 7.12562C40.3506 7.63196 40.4233 8.09338 40.611 8.50988C40.7987 8.92639 41.0812 9.26327 41.4586 9.5246C41.836 9.7839 42.284 9.93907 42.8027 9.98603C43.3213 10.033 43.7875 9.96357 44.2033 9.77777C44.617 9.59198 44.952 9.31227 45.2083 8.93864C45.4646 8.56705 45.616 8.12809 45.6604 7.61971L46.0115 3.73641L44.5968 3.60574L44.2376 7.57071Z" fill="#77F1A1"/>
<path d="M53.1779 8.75063L53.2365 8.55055L50.0417 7.58687L49.7007 8.74451L51.4363 9.29985C51.3656 9.41622 51.291 9.52239 51.2042 9.61223C50.9923 9.83069 50.742 9.96952 50.4534 10.0308C50.1628 10.092 49.8399 10.0675 49.4847 9.96135C49.1336 9.85519 48.849 9.68164 48.627 9.43664C48.405 9.19164 48.2597 8.90172 48.1911 8.56484C48.1225 8.22796 48.1427 7.86658 48.2557 7.48478C48.3687 7.10095 48.5463 6.79061 48.7885 6.54969C49.0307 6.31081 49.3172 6.1536 49.6442 6.07806C49.9731 6.00252 50.3142 6.01885 50.6714 6.12706C51.0044 6.2271 51.2849 6.38227 51.5109 6.58848C51.737 6.79673 51.9105 7.05603 52.0296 7.37045L53.2264 6.71711C53.0447 6.29448 52.7682 5.92493 52.3969 5.60235C52.0256 5.2818 51.5796 5.04292 51.0569 4.88571C50.6028 4.74892 50.1548 4.69992 49.7108 4.74075C49.2668 4.78159 48.8551 4.9 48.4757 5.09805C48.0942 5.29609 47.7653 5.56151 47.4848 5.89431C47.2042 6.2271 47.0004 6.61706 46.8672 7.06419C46.736 7.51133 46.6937 7.95233 46.7441 8.38925C46.7946 8.82413 46.9197 9.23043 47.1215 9.60406C47.3233 9.97769 47.5937 10.3044 47.9348 10.5841C48.2739 10.8638 48.6654 11.07 49.1073 11.2047C49.7108 11.3865 50.2799 11.4191 50.8187 11.3027C51.3555 11.1864 51.8298 10.9169 52.2395 10.4942C52.6492 10.0696 52.962 9.48972 53.1799 8.75267L53.1779 8.75063Z" fill="#77F1A1"/>
<path d="M57.3212 7.61142L52.0215 11.9623L53.299 12.6871L54.2294 11.8806L56.3989 13.1117L56.1991 14.3327L57.5008 15.0718L58.4372 8.2423L57.3252 7.60938L57.3212 7.61142ZM56.5967 11.8928L55.1597 11.0762L56.9922 9.49181L56.5987 11.8928H56.5967Z" fill="#77F1A1"/>
<path d="M61.8862 10.5393L57.743 15.4006L58.8126 16.3336L60.9417 18.1916L61.753 17.2422L59.6218 15.3822L62.9538 11.4724L61.8862 10.5393Z" fill="#77F1A1"/>
<path d="M11.0614 38.4661C11.0735 38.3546 11.0735 38.2898 11.0735 38.2898C11.0675 38.3486 11.0654 38.4073 11.0614 38.4661Z" fill="black"/>
<path d="M77.0969 34.041C76.1464 33.1324 74.883 32.6036 73.5773 32.5832C70.4996 32.5342 68.1202 35.0761 68.1868 38.0611L68.1505 38.349C68.2615 42.8835 68.0435 47.3181 66.4835 51.4954C64.984 55.5094 62.5885 59.162 59.525 62.1244C56.3646 65.1809 52.518 67.4737 48.3586 68.8191C47.6644 69.0437 46.9621 69.2418 46.2517 69.4153C30.8028 73.1741 15.2712 63.5353 11.5599 47.8836C10.8253 44.7864 10.6114 41.6871 10.8576 38.6777C10.7789 39.4515 10.1714 42.5018 5.53575 42.7774C0.843581 43.0571 0.219977 38.9758 0.219977 38.9758C-0.0645805 42.9734 0.250249 46.2932 1.22299 50.397C6.30466 71.8306 27.5779 85.0343 48.734 79.8851C53.0266 78.8398 57.1416 77.0717 60.8549 74.6523C64.4553 72.3064 67.6661 69.3602 70.3321 65.9689C72.9779 62.6063 75.0828 58.8108 76.5439 54.7723C78.0232 50.6787 78.8365 46.3422 78.9314 41.9852C78.9899 39.2902 79.2906 36.1358 77.0969 34.041ZM32.0258 73.1761C31.9249 73.4803 31.7917 73.7458 31.6262 73.9744C31.4608 74.2031 31.2529 74.4134 30.9966 74.6033C30.7423 74.7931 30.4254 74.9769 30.0481 75.1525L28.2479 76.0202L30.9381 76.943L30.3972 78.556L24.7787 76.6266L25.1319 75.5771L29.1338 73.5334C29.3296 73.4232 29.4951 73.3211 29.6303 73.2272C29.7655 73.1332 29.8705 73.0373 29.9492 72.9372C30.0259 72.8392 30.0844 72.729 30.1268 72.6065C30.2196 72.3329 30.2034 72.0859 30.0824 71.8674C29.9613 71.6489 29.7574 71.4897 29.4729 71.3917C29.2025 71.2978 28.93 71.2916 28.6555 71.3713C28.3831 71.4509 28.0683 71.6306 27.711 71.9103L26.8372 70.3545C27.3135 69.9543 27.8342 69.7052 28.4013 69.6052C28.9683 69.5052 29.5617 69.5623 30.1812 69.7767C30.7302 69.9645 31.1701 70.23 31.5031 70.5689C31.8341 70.9078 32.048 71.2998 32.1409 71.7469C32.2337 72.1941 32.1954 72.6698 32.0258 73.1741V73.1761ZM39.3517 75.7997C39.2548 76.6164 39.0187 77.3187 38.6453 77.9067C38.272 78.4947 37.8038 78.9316 37.2427 79.2154C36.6817 79.4992 36.0722 79.6034 35.4143 79.5217C34.7483 79.44 34.1751 79.193 33.6928 78.7765C33.2105 78.36 32.8553 77.821 32.6272 77.1554C32.3992 76.4898 32.3346 75.7486 32.4315 74.932C32.5283 74.1214 32.7624 73.4232 33.1358 72.8352C33.5092 72.2471 33.9774 71.8082 34.5384 71.5203C35.0995 71.2324 35.7109 71.1283 36.3689 71.2079C37.0429 71.2896 37.6201 71.5387 38.1024 71.9552C38.5828 72.3717 38.9359 72.9087 39.162 73.5702C39.386 74.2317 39.4506 74.9748 39.3517 75.7997ZM40.3708 79.7953L40.28 78.6907L43.1458 75.2035C43.283 75.0238 43.394 74.8626 43.4808 74.7217C43.5676 74.5808 43.6261 74.4501 43.6584 74.3276C43.6907 74.2072 43.7008 74.0806 43.6907 73.952C43.6664 73.6641 43.5554 73.4436 43.3577 73.2925C43.1599 73.1414 42.9117 73.0781 42.611 73.1026C42.3264 73.1271 42.0741 73.2292 41.8542 73.413C41.6342 73.5967 41.4162 73.8887 41.2003 74.2888L39.7856 73.2149C40.0641 72.6555 40.4435 72.2165 40.9238 71.898C41.4041 71.5775 41.9712 71.3917 42.6231 71.3366C43.2023 71.2876 43.7088 71.3529 44.1468 71.5285C44.5847 71.7061 44.9338 71.9797 45.1962 72.3513C45.4565 72.7229 45.6099 73.1761 45.6543 73.707C45.6805 74.0255 45.6644 74.3236 45.6039 74.6012C45.5433 74.8769 45.4343 75.1545 45.2749 75.4322C45.1155 75.7099 44.8995 76.0059 44.623 76.3183L43.3153 77.8393L46.1467 77.6005L46.286 79.2971L40.3728 79.7953H40.3708ZM52.6593 76.3857C52.518 76.8655 52.2476 77.284 51.85 77.6413C51.4504 77.9986 50.9358 78.2661 50.3061 78.4437C49.7774 78.5927 49.2446 78.6417 48.7098 78.5907C48.175 78.5396 47.7047 78.3865 47.2971 78.1272L48.1992 76.5429C48.3828 76.698 48.619 76.7981 48.9096 76.8471C49.2002 76.8961 49.4888 76.8797 49.7713 76.8001C50.0256 76.7287 50.2314 76.6204 50.3929 76.4775C50.5523 76.3346 50.6613 76.1652 50.7219 75.9692C50.7804 75.7752 50.7804 75.5629 50.7178 75.3362C50.6553 75.1096 50.5483 74.9258 50.3969 74.785C50.2456 74.6461 50.0579 74.5563 49.8359 74.5155C49.6139 74.4746 49.3657 74.495 49.0892 74.5726C48.843 74.6421 48.625 74.7421 48.4373 74.8687C48.2496 74.9973 48.0902 75.1463 47.957 75.3178L47.0004 74.8278L46.3586 71.0078L50.7905 69.7583L51.2425 71.3998L48.3687 72.2104L48.5463 73.3313C48.5887 73.3047 48.629 73.2762 48.6734 73.2537C48.8329 73.17 49.0307 73.0945 49.2627 73.0291C49.85 72.8637 50.3747 72.8433 50.8369 72.972C51.299 73.0985 51.6845 73.3313 51.9953 73.6661C52.3061 74.001 52.5281 74.4052 52.6573 74.8748C52.8026 75.4036 52.8046 75.9079 52.6633 76.3857H52.6593ZM74.9516 39.2943C74.0879 39.2943 73.3876 38.5858 73.3876 37.7099C73.3876 36.834 74.0879 36.1256 74.9516 36.1256C75.8154 36.1256 76.5157 36.834 76.5157 37.7099C76.5157 38.5858 75.8154 39.2943 74.9516 39.2943Z" fill="#77F1A1"/>
<path d="M36.9238 73.3457C36.7281 73.1334 36.4738 73.0088 36.161 72.9701C35.8684 72.9353 35.604 72.9946 35.3658 73.1497C35.1277 73.3049 34.9279 73.554 34.7705 73.8949C34.6111 74.2359 34.5021 74.6647 34.4415 75.1792C34.379 75.7018 34.385 76.149 34.4577 76.5226C34.5303 76.8962 34.6655 77.1882 34.8593 77.4005C35.0551 77.6129 35.3013 77.7354 35.5999 77.7721C35.9067 77.8089 36.1792 77.7497 36.4173 77.5904C36.6554 77.4312 36.8552 77.1821 37.0147 76.8391C37.1721 76.4981 37.2831 76.0653 37.3456 75.5426C37.4062 75.0281 37.4001 74.5871 37.3275 74.2155C37.2528 73.8459 37.1196 73.554 36.9238 73.3437V73.3457Z" fill="#77F1A1"/>
</g>
<defs>
<clipPath id="clip0_7_2">
<rect width="79" height="81" fill="white"/>
</clipPath>
</defs>
</svg>
