<svg width="35" height="34" viewBox="0 0 35 34" fill="none" xmlns="http://www.w3.org/2000/svg">
<g id="&#240;&#159;&#166;&#134; icon &#34;linkedin&#34;">
<path id="Vector" d="M29.8185 28.4601H24.6356V20.7105C24.6356 18.8625 24.5963 16.4844 21.9348 16.4844C19.2325 16.4844 18.8198 18.4952 18.8198 20.5742V28.4601H13.6369V12.524H18.6156V14.6962H18.6827C19.3783 13.4438 21.07 12.1218 23.5973 12.1218C28.8488 12.1218 29.82 15.4198 29.82 19.7128L29.8185 28.4601ZM7.78312 10.3434C7.38774 10.3436 6.99619 10.2694 6.6309 10.125C6.26561 9.98064 5.93375 9.76894 5.6543 9.50203C5.37486 9.23512 5.15332 8.91825 5.00237 8.56954C4.85141 8.22084 4.77401 7.84716 4.77458 7.46987C4.77487 6.90181 4.95169 6.34659 5.28267 5.87441C5.61365 5.40224 6.08394 5.03433 6.63405 4.81719C7.18417 4.60006 7.78941 4.54346 8.37323 4.65455C8.95706 4.76565 9.49325 5.03944 9.91401 5.44132C10.3348 5.84319 10.6212 6.3551 10.737 6.9123C10.8529 7.4695 10.793 8.04697 10.5649 8.57168C10.3368 9.0964 9.95079 9.54479 9.45564 9.86016C8.96049 10.1755 8.37845 10.3437 7.78312 10.3434ZM10.3819 28.4601H5.18438V12.524H10.3819V28.4601ZM32.4115 0H2.58271C1.155 0 0 1.07706 0 2.406V30.9913C0 32.3217 1.155 33.3973 2.58271 33.3973H32.4071C33.8333 33.3973 35 32.3217 35 30.9913V2.406C35 1.07706 33.8333 0 32.4071 0H32.4115Z" fill="#5076F6"/>
</g>
</svg>
