<svg width="38" height="35" viewBox="0 0 38 35" fill="none" xmlns="http://www.w3.org/2000/svg">
<g id="Layer_1" clip-path="url(#clip0_10_172)">
<g id="WpkT76">
<path id="Vector" d="M38.0001 34.9891H37.5599C34.0678 34.9891 30.5757 34.9864 27.0809 34.9971C26.7874 34.9971 26.6162 34.9062 26.445 34.6789C23.1675 30.352 19.8847 26.0359 16.5991 21.7143C16.4904 21.5726 16.3817 21.4336 16.2513 21.2624C15.5175 22.0433 14.7974 22.8027 14.0799 23.5676C10.6014 27.266 7.1202 30.9644 3.64713 34.6682C3.42972 34.9009 3.21503 35.0105 2.88349 35.0025C1.96766 34.9784 1.04912 34.9945 0.00284576 34.9945C4.95972 29.7236 9.85138 24.5223 14.7621 19.2995C9.89214 12.8895 5.03038 6.49545 0.125137 0.0425888C0.280039 0.0265436 0.383308 0.00782415 0.489294 0.00782415C4.01944 0.00782415 7.5523 0.00782415 11.0824 -0.000198463C11.3325 -0.000198463 11.4765 0.0827019 11.6232 0.275245C14.6533 4.27318 17.6916 8.26577 20.7272 12.2584C20.8114 12.3707 20.9011 12.4803 21.0859 12.7156C21.1701 12.5712 21.2218 12.4322 21.3142 12.3359C25.0726 8.3353 28.8337 4.34004 32.5867 0.336751C32.8177 0.0880503 33.0514 -0.0108953 33.3884 -0.000198463C34.1765 0.0211952 34.9673 0.00514995 35.7554 0.00782415C35.8804 0.00782415 36.0027 0.018521 36.2201 0.0292178C31.622 4.91767 27.0781 9.74995 22.5099 14.6063C27.6624 21.3854 32.8014 28.1485 38.0001 34.9891ZM33.0759 32.5689C32.9536 32.3951 32.8775 32.2801 32.796 32.1705C30.2414 28.809 27.6869 25.4475 25.1324 22.0861C20.2244 15.6279 15.3137 9.17233 10.4112 2.71145C10.2481 2.49751 10.0878 2.39856 9.80789 2.40124C8.33496 2.41461 6.85931 2.40659 5.38638 2.40926C5.2804 2.40926 5.17713 2.42531 5.02766 2.436C5.1418 2.59111 5.21246 2.6954 5.29127 2.79702C10.5634 9.73391 15.8328 16.6708 21.1049 23.6077C23.3116 26.5119 25.5155 29.4134 27.7304 32.3122C27.8201 32.4272 27.9831 32.5583 28.1163 32.5609C29.7441 32.577 31.3747 32.5716 33.0813 32.5716L33.0759 32.5689Z" fill="#5076F6"/>
</g>
</g>
<defs>
<clipPath id="clip0_10_172">
<rect width="38" height="35" fill="white"/>
</clipPath>
</defs>
</svg>
