<svg width="46" height="44" viewBox="0 0 46 44" fill="none" xmlns="http://www.w3.org/2000/svg">
<g id="&#240;&#159;&#166;&#134; icon &#34;github&#34;">
<path id="Vector" d="M22.746 0C10.1789 0 0 9.94897 0 22.2199C0 32.0393 6.51674 40.3662 15.5526 43.3011C16.6899 43.5103 17.1069 42.8233 17.1069 42.2327C17.1069 41.7049 17.088 40.3069 17.0785 38.4553C10.7513 39.7959 9.41686 35.4741 9.41686 35.4741C8.38191 32.9096 6.88636 32.2244 6.88636 32.2244C4.82595 30.8468 7.04558 30.8746 7.04558 30.8746C9.32967 31.0301 10.5295 33.1632 10.5295 33.1632C12.5577 36.561 15.854 35.5797 17.1543 35.0112C17.359 33.5743 17.9447 32.5948 18.5949 32.0393C13.5434 31.4838 8.23407 29.5729 8.23407 21.0589C8.23407 18.6333 9.11547 16.652 10.575 15.0966C10.3191 14.5355 9.55144 12.2765 10.774 9.21571C10.774 9.21571 12.679 8.61948 17.0292 11.4933C18.8489 10.9989 20.7823 10.7544 22.7157 10.7433C24.6491 10.7544 26.5825 10.9989 28.4022 11.4933C32.724 8.61948 34.6289 9.21571 34.6289 9.21571C35.8515 12.2765 35.0839 14.5355 34.8564 15.0966C36.3065 16.652 37.1879 18.6333 37.1879 21.0589C37.1879 29.5951 31.871 31.4745 26.81 32.0208C27.6061 32.6874 28.3454 34.0502 28.3454 36.1314C28.3454 39.1052 28.3169 41.4939 28.3169 42.216C28.3169 42.7993 28.715 43.4936 29.8807 43.2714C38.981 40.3569 45.4921 32.0245 45.4921 22.2199C45.4921 9.94897 35.3075 0 22.746 0Z" fill="#5076F6"/>
</g>
</svg>
