<svg width="38" height="27" viewBox="0 0 38 27" fill="none" xmlns="http://www.w3.org/2000/svg">
<g id="&#240;&#159;&#166;&#134; icon &#34;youtube&#34;">
<path id="Vector" d="M37.2067 4.15764C36.9864 3.35753 36.5663 2.62856 35.987 2.04117C35.4076 1.45379 34.6886 1.02787 33.8994 0.804568C30.9375 2.3068e-05 19.0169 2.27803e-05 19.0169 2.27803e-05C19.0169 2.27803e-05 7.12641 -0.0160357 4.13438 0.804568C3.34521 1.02787 2.6262 1.45379 2.04685 2.04117C1.4675 2.62856 1.04739 3.35753 0.827149 4.15764C0.265682 7.23211 -0.0111246 10.3531 0.000342115 13.4798C-0.00895688 16.5947 0.26784 19.7037 0.827149 22.7666C1.04739 23.5667 1.4675 24.2956 2.04685 24.883C2.6262 25.4704 3.34521 25.8963 4.13438 26.1196C7.09314 26.9258 19.0169 26.9258 19.0169 26.9258C19.0169 26.9258 30.9058 26.9258 33.8994 26.1196C34.6886 25.8963 35.4076 25.4704 35.987 24.883C36.5663 24.2956 36.9864 23.5667 37.2067 22.7666C37.7543 19.7026 38.0194 16.5936 37.9986 13.4798C38.0216 10.3542 37.7565 7.23323 37.2067 4.15764ZM15.2123 19.2465V7.69539L25.134 13.4798L15.2123 19.2465Z" fill="#5076F6"/>
</g>
</svg>
