<svg width="36" height="36" viewBox="0 0 36 36" fill="none" xmlns="http://www.w3.org/2000/svg">
<g id="&#240;&#159;&#166;&#134; icon &#34;slack&#34;">
<path id="Vector" d="M7.40516 22.1422C7.40322 23.1178 7.01281 24.053 6.31926 24.7433C5.62571 25.4336 4.68545 25.8229 3.70405 25.8259C2.72214 25.8236 1.78113 25.4347 1.08694 24.7443C0.392762 24.054 0.00193932 23.1183 0 22.1422C0.00271629 21.1666 0.393929 20.2319 1.08807 19.5424C1.78221 18.8529 2.72278 18.4647 3.70405 18.4627H7.40516V22.1422ZM9.27187 22.1422C9.27459 21.1669 9.6656 20.2324 10.3594 19.5429C11.0532 18.8534 11.9934 18.4651 12.9745 18.4627C13.9555 18.4651 14.8957 18.8534 15.5895 19.5429C16.2833 20.2324 16.6743 21.1669 16.677 22.1422V31.3597C16.6747 32.3353 16.2839 33.2704 15.5901 33.9604C14.8963 34.6504 13.9559 35.0393 12.9745 35.042C11.993 35.0393 11.0526 34.6504 10.3588 33.9604C9.66499 33.2704 9.2742 32.3353 9.27187 31.3597V22.1422ZM12.9745 7.36174C11.9936 7.35904 11.0536 6.97057 10.3598 6.28117C9.66611 5.59178 9.27497 4.65747 9.27187 3.68233C9.2742 2.70668 9.66499 1.77163 10.3588 1.0816C11.0526 0.39157 11.993 0.00269883 12.9745 0C13.9559 0.00269883 14.8963 0.39157 15.5901 1.0816C16.2839 1.77163 16.6747 2.70668 16.677 3.68233V7.36174H12.9745ZM12.9745 9.2175C13.9556 9.2202 14.8958 9.60887 15.5896 10.2986C16.2834 10.9883 16.6743 11.923 16.677 12.8984C16.6743 13.8738 16.2834 14.8084 15.5896 15.4982C14.8958 16.1879 13.9556 16.5765 12.9745 16.5792H3.70405C2.72264 16.5769 1.78208 16.1884 1.08798 15.4987C0.39388 14.8089 0.00271475 13.874 0 12.8984C0.00271475 11.9227 0.39388 10.9878 1.08798 10.2981C1.78208 9.60832 2.72264 9.21982 3.70405 9.2175H12.9745ZM27.8406 12.8984C27.8433 11.9227 28.2345 10.9878 28.9286 10.2981C29.6227 9.60832 30.5632 9.21982 31.5446 9.2175C32.526 9.21982 33.4666 9.60832 34.1607 10.2981C34.8548 10.9878 35.246 11.9227 35.2487 12.8984C35.246 13.874 34.8548 14.8089 34.1607 15.4987C33.4666 16.1884 32.526 16.5769 31.5446 16.5792H27.8406V12.8984ZM25.9783 12.8984C25.9756 13.8743 25.5842 14.8094 24.8898 15.4992C24.1954 16.189 23.2544 16.5773 22.2728 16.5792C21.2917 16.5765 20.3517 16.1878 19.6582 15.4981C18.9646 14.8083 18.574 13.8736 18.5717 12.8984V3.68233C18.5736 2.70681 18.9641 1.77176 19.6576 1.08169C20.3512 0.391619 21.2915 0.00270037 22.2728 0C23.2547 0.00192795 24.1958 0.390459 24.8903 1.08057C25.5848 1.77068 25.976 2.70617 25.9783 3.68233V12.8984ZM22.2728 27.6773C23.2547 27.6793 24.1958 28.0678 24.8903 28.7579C25.5848 29.448 25.976 30.3835 25.9783 31.3597C25.976 32.3358 25.5848 33.2713 24.8903 33.9614C24.1958 34.6515 23.2547 35.0401 22.2728 35.042C21.2915 35.0393 20.3512 34.6504 19.6576 33.9603C18.9641 33.2702 18.5736 32.3352 18.5717 31.3597V27.6773H22.2728ZM22.2728 25.8259C21.2912 25.8232 20.3508 25.4341 19.6571 24.7437C18.9635 24.0534 18.5732 23.1179 18.5717 22.1422C18.574 21.167 18.9647 20.2325 19.6583 19.543C20.3518 18.8535 21.2919 18.4651 22.2728 18.4627H31.5446C32.5259 18.4647 33.4665 18.8529 34.1606 19.5424C34.8548 20.2319 35.246 21.1666 35.2487 22.1422C35.2467 23.1183 34.8559 24.054 34.1617 24.7443C33.4676 25.4347 32.5266 25.8236 31.5446 25.8259H22.2728Z" fill="#5076F6"/>
</g>
</svg>
